<svg width="24" height="24" viewBox="0 0 24 24" fill="none" xmlns="http://www.w3.org/2000/svg">
<path d="M10.2422 13.7344C10.2422 14.6391 9.58594 14.925 8.77969 14.925H6.66562V12.4453H8.82187C9.69375 12.45 10.2422 12.8109 10.2422 13.7344V13.7344ZM9.88125 9.87656C9.88125 9.04687 9.23906 8.85 8.52656 8.85H6.67031V10.95H8.67188C9.37969 10.95 9.88125 10.6406 9.88125 9.87656V9.87656ZM16.0828 10.9641C15.225 10.9641 14.6531 11.4984 14.5969 12.3563H17.5125C17.4328 11.4891 16.9828 10.9641 16.0828 10.9641ZM22.5 3.75V20.25C22.5 21.4922 21.4922 22.5 20.25 22.5H3.75C2.50781 22.5 1.5 21.4922 1.5 20.25V3.75C1.5 2.50781 2.50781 1.5 3.75 1.5H20.25C21.4922 1.5 22.5 2.50781 22.5 3.75ZM14.2359 8.67188H17.8828V7.78594H14.2359V8.67188ZM12.2203 13.8422C12.2203 12.7125 11.6859 11.7375 10.5797 11.4234C11.3859 11.0391 11.8078 10.5937 11.8078 9.68906C11.8078 7.89844 10.4719 7.4625 8.92969 7.4625H4.6875V16.4625H9.05156C10.6875 16.4531 12.2203 15.6703 12.2203 13.8422V13.8422ZM19.3125 13.1484C19.3125 11.2219 18.1828 9.61406 16.1437 9.61406C14.1562 9.61406 12.8109 11.1047 12.8109 13.0641C12.8109 15.0938 14.0906 16.4859 16.1437 16.4859C17.7 16.4859 18.7078 15.7875 19.1953 14.2922H17.6156C17.4422 14.85 16.7438 15.1406 16.2 15.1406C15.15 15.1406 14.6016 14.5266 14.6016 13.4859H19.2984C19.3031 13.3781 19.3125 13.2609 19.3125 13.1484Z" fill="black"/>
</svg>
