<?xml version="1.0" encoding="utf-8"?>
<!-- Generator: Adobe Illustrator 25.2.1, SVG Export Plug-In . SVG Version: 6.00 Build 0)  -->
<svg version="1.1" id="Layer_1" xmlns="http://www.w3.org/2000/svg" xmlns:xlink="http://www.w3.org/1999/xlink" x="0px" y="0px"
	 viewBox="0 0 64 64" style="enable-background:new 0 0 64 64;" xml:space="preserve">
<style type="text/css">
	.st0{fill:#020202;}
</style>
<g>
	<path class="st0" d="M24.6,31.4c-0.3,0.2-0.5,0.5-0.5,0.8c-0.1,0.6,0.3,1.3,0.9,1.4l5.6,1.1l3.7,4.3c0.3,0.3,0.8,0.5,1.2,0.4l0.1,0
		c0.5-0.2,0.8-0.6,0.8-1.1l0.7-12.4c0-0.4-0.2-0.9-0.6-1.1c-0.4-0.2-0.9-0.2-1.2,0L24.6,31.4L24.6,31.4z"/>
	<path d="M15.2,52.8c-2.5,0-4.4-0.6-5.6-1.9c-1.2-1.3-1.7-2.9-1.4-4.8l1.2-7.2c0.2-1.3,0.2-2.2-0.2-2.7c-0.3-0.4-0.9-0.7-1.9-0.9
		c-1.4-0.2-2.2-1.1-2.2-2.5c0-1.1,0.2-2,0.7-2.7c0.5-0.7,1.2-1.1,2-1.2c1.2-0.1,2-0.3,2.5-0.8c0.5-0.5,0.9-1.4,1.1-2.6l1.1-7.3
		c0.4-2.3,1.2-4.1,2.4-5.2c1.3-1.1,2.8-1.7,4.7-1.7h3.8c1.2,0,2,0.3,2.5,0.8c0.5,0.5,0.8,1.3,0.8,2.3c0,1-0.3,1.7-0.9,2.3
		c-0.6,0.5-1.4,0.8-2.4,0.8h-0.8c-0.5,0-0.9,0.1-1.3,0.4c-0.4,0.3-0.6,0.8-0.8,1.6l-1.1,7c-0.2,1.5-0.8,2.8-1.9,3.8
		c-1,1-2,1.6-3,1.8c0.9,0.3,1.7,0.9,2.4,2c0.7,1.1,0.9,2.3,0.7,3.9l-1.1,6.9c-0.1,0.8,0,1.3,0.2,1.5c0.3,0.3,0.7,0.4,1.3,0.4h0.6
		c0.7,0,1.2,0.3,1.6,0.8c0.4,0.5,0.6,1.2,0.6,2c0,2.3-1.1,3.4-3.2,3.4H15.2z"/>
	<path d="M40.4,52.8c-1.2,0-2-0.3-2.5-0.8c-0.5-0.5-0.8-1.3-0.8-2.3c0-1,0.3-1.7,0.9-2.3c0.6-0.5,1.4-0.8,2.4-0.8h0.8
		c0.5,0,0.9-0.1,1.3-0.4c0.4-0.3,0.6-0.8,0.8-1.6l1.1-7c0.2-1.5,0.8-2.8,1.9-3.8c1-1,2-1.6,3-1.8c-0.9-0.3-1.7-0.9-2.4-2
		c-0.7-1.1-0.9-2.3-0.7-3.9l1.1-6.9c0.1-0.8,0-1.3-0.2-1.5c-0.3-0.3-0.7-0.4-1.3-0.4h-0.6c-0.7,0-1.2-0.2-1.6-0.8
		c-0.4-0.5-0.6-1.2-0.6-2c0-2.3,1.1-3.4,3.2-3.4h2.8c2.5,0,4.4,0.7,5.6,1.9c1.2,1.3,1.7,2.9,1.4,4.8l-1.2,7.2
		c-0.2,1.3-0.2,2.2,0.2,2.7c0.3,0.4,0.9,0.7,1.9,0.9c1.4,0.2,2.2,1.1,2.2,2.5c0,1.1-0.2,2-0.7,2.7c-0.5,0.7-1.2,1.1-2,1.2
		c-1.2,0.1-2,0.3-2.5,0.8c-0.5,0.5-0.9,1.4-1.1,2.6l-1.1,7.3c-0.4,2.3-1.2,4.1-2.4,5.2c-1.3,1.1-2.8,1.7-4.7,1.7H40.4z"/>
</g>
</svg>
