<svg width="24" height="24" viewBox="0 0 24 24" fill="none" xmlns="http://www.w3.org/2000/svg">
<path d="M5.72812 10.6969C6.14531 8.70937 7.48125 7.05469 9.27656 6.21094C9.44531 6.44063 10.5891 8.02969 11.6531 9.91406C8.65313 10.7109 6.01406 10.7016 5.72812 10.6969V10.6969ZM16.2469 7.21875C14.6719 5.82188 12.5297 5.29219 10.5 5.78438C10.6781 6.02344 11.8406 7.60781 12.8906 9.53437C15.1687 8.67656 16.1297 7.38281 16.2469 7.21875ZM8.06719 17.0625C9.96563 18.5438 12.4406 18.7828 14.5031 17.9062C14.4094 17.3438 14.0344 15.3844 13.1344 13.05C10.5516 13.9312 8.7375 15.6937 8.06719 17.0625ZM12.6984 11.9906C12.5391 11.625 12.3609 11.2641 12.1781 10.9031C8.98125 11.8594 5.87813 11.8219 5.59688 11.8125C5.59688 11.8781 5.59219 11.9438 5.59219 12.0094C5.59219 13.6547 6.21563 15.1547 7.2375 16.2938C8.27813 14.5172 10.3828 12.6422 12.6984 11.9906V11.9906ZM14.3344 12.7547C15.1734 15.0563 15.5109 16.9312 15.5766 17.3203C17.0156 16.35 18.0375 14.8078 18.3234 13.0266C18.1078 12.9562 16.3406 12.4313 14.3344 12.7547V12.7547ZM13.3828 10.4859C13.6078 10.9453 13.7719 11.3203 13.9453 11.7422C16.0781 11.475 18.1969 11.9016 18.4078 11.9484C18.3938 10.4344 17.8547 9.04688 16.9594 7.95938C16.8234 8.14219 15.75 9.51562 13.3828 10.4859V10.4859ZM22.5 3.75V20.25C22.5 21.4922 21.4922 22.5 20.25 22.5H3.75C2.50781 22.5 1.5 21.4922 1.5 20.25V3.75C1.5 2.50781 2.50781 1.5 3.75 1.5H20.25C21.4922 1.5 22.5 2.50781 22.5 3.75ZM19.5 12C19.5 7.86563 16.1344 4.5 12 4.5C7.86563 4.5 4.5 7.86563 4.5 12C4.5 16.1344 7.86563 19.5 12 19.5C16.1344 19.5 19.5 16.1344 19.5 12Z" fill="black"/>
</svg>
